<?xml version="1.0" encoding="UTF-8" standalone="no"?>
<svg
   xmlns:dc="http://purl.org/dc/elements/1.1/"
   xmlns:cc="http://creativecommons.org/ns#"
   xmlns:rdf="http://www.w3.org/1999/02/22-rdf-syntax-ns#"
   xmlns:svg="http://www.w3.org/2000/svg"
   xmlns="http://www.w3.org/2000/svg"
   xmlns:sodipodi="http://sodipodi.sourceforge.net/DTD/sodipodi-0.dtd"
   xmlns:inkscape="http://www.inkscape.org/namespaces/inkscape"
   version="1.1"
   id="svg2"
   xml:space="preserve"
   width="1152"
   height="1152"
   viewBox="0 0 1152 1152"
   sodipodi:docname="the-vector-converter-1230-bjMaLdRaFpXTkLoc.ai"><metadata
     id="metadata8"><rdf:RDF><cc:Work
         rdf:about=""><dc:format>image/svg+xml</dc:format><dc:type
           rdf:resource="http://purl.org/dc/dcmitype/StillImage" /></cc:Work></rdf:RDF></metadata><defs
     id="defs6"><clipPath
       clipPathUnits="userSpaceOnUse"
       id="clipPath18"><path
         d="M 0,864 H 864 V 0 H 0 Z"
         id="path16" /></clipPath><clipPath
       clipPathUnits="userSpaceOnUse"
       id="clipPath58"><path
         d="M 0,864 H 864 V 0 H 0 Z"
         id="path56" /></clipPath></defs><sodipodi:namedview
     pagecolor="#ffffff"
     bordercolor="#666666"
     borderopacity="1"
     objecttolerance="10"
     gridtolerance="10"
     guidetolerance="10"
     inkscape:pageopacity="0"
     inkscape:pageshadow="2"
     inkscape:window-width="640"
     inkscape:window-height="480"
     id="namedview4" /><g
     id="g10"
     inkscape:groupmode="layer"
     inkscape:label="the-vector-converter-1230-bjMaLdRaFpXTkLoc"
     transform="matrix(1.3333333,0,0,-1.3333333,0,1152)"><g
       id="g12"><g
         id="g14"
         clip-path="url(#clipPath18)"><g
           id="g20"
           transform="translate(426.3805,119.8495)"><path
             d="m 0,0 c -28.075,13.276 -55.644,26.925 -81.792,43.794 -38.941,25.121 -73.085,55.681 -101.554,92.301 -37.905,48.758 -63.542,105.108 -80.276,164.335 -22.583,79.928 -29.374,164.834 -28.219,247.649 l 0.235,16.883 16.172,4.853 c 198.151,59.466 372.41,59.488 570.559,0.002 l 16.17,-4.855 0.236,-16.881 C 312.686,465.266 305.895,380.359 283.312,300.43 266.578,241.203 240.941,184.853 203.036,136.095 174.567,99.475 140.423,68.915 101.481,43.794 75.333,26.925 47.765,13.276 19.691,0 L 9.845,-4.656 Z"
             style="fill:#070707;fill-opacity:1;fill-rule:evenodd;stroke:none"
             id="path22" /></g><g
           id="g24"
           transform="translate(157.5665,667.6073)"><path
             d="m 0,0 c -1.123,-80.513 5.477,-163.64 27.354,-241.066 15.93,-56.383 40.211,-110.046 76.296,-156.463 26.964,-34.683 58.994,-63.302 95.856,-87.083 25.627,-16.533 51.913,-29.447 79.153,-42.327 27.239,12.88 53.526,25.794 79.153,42.327 36.862,23.781 68.892,52.4 95.856,87.083 36.085,46.417 60.366,100.08 76.296,156.463 C 551.84,-163.64 558.44,-80.512 557.317,0.002 363.064,58.318 194.254,58.296 0,0"
             style="fill:#a9abb7;fill-opacity:1;fill-rule:evenodd;stroke:none"
             id="path26" /></g><g
           id="g28"
           transform="translate(681.1056,280.328)"><path
             d="m 0,0 -403.094,-56.563 v -75.342 L 0,-54.604 Z"
             style="fill:#070707;fill-opacity:1;fill-rule:nonzero;stroke:none"
             id="path30" /></g><g
           id="g32"
           transform="translate(494.6573,633.2904)"><path
             d="m 0,0 c 0,-20.336 117.235,-58.249 95.235,-95.413 -22.115,-37.357 -183.538,-73.914 -211.015,-73.914 -54.812,0 -184.921,101.407 -184.921,142.185 0,40.78 130.109,5.49 184.921,5.49 C -60.969,-21.652 0,40.779 0,0"
             style="fill:#070707;fill-opacity:1;fill-rule:nonzero;stroke:none"
             id="path34" /></g><g
           id="g36"
           transform="translate(558.0206,576.1039)"><path
             d="m 0,0 c -9.781,0 -21.067,-1.724 -32.639,-4.986 -33.088,-9.329 -45.205,-23.727 -44.335,-26.815 0.354,-1.254 5.555,-4.696 19.176,-4.696 9.781,0 21.068,1.724 32.638,4.986 13.919,3.925 26.348,9.547 34.997,15.83 7.722,5.611 9.645,9.893 9.338,10.986 C 18.821,-3.441 13.62,0 0,0 m -64.433,-62.544 c 0.277,-0.343 0.424,-0.409 0.523,-0.452 3.645,-1.615 9.348,-2.504 16.059,-2.504 9.329,0 20.03,1.626 30.947,4.704 21.938,6.185 36.517,15.847 41.235,22.678 0.059,0.086 0.149,0.218 0.206,0.659 0.019,0.398 0.007,1.551 -0.301,4.702 -16.876,-13.672 -40.544,-20.088 -43.191,-20.775 -2.079,-0.631 -18.87,-5.551 -36.766,-5.551 -3.842,0 -7.479,0.229 -10.9,0.684 1.377,-2.832 1.966,-3.816 2.188,-4.145 m -63.424,-128.073 c -44.108,0 -75.975,9.97 -77.31,10.394 l -26.953,8.568 27.706,5.683 c 11.687,2.396 22.577,6.489 32.366,12.164 7.124,4.129 13.066,8.758 17.947,13.319 -13.565,-5.473 -27.375,-9.083 -41.306,-10.781 -6.214,-0.758 -12.538,-1.143 -18.795,-1.143 -63,0 -106.186,37.821 -107.993,39.431 l -0.21,0.187 -0.196,0.203 c -41.226,42.781 -85.246,51.761 -114.914,51.761 -25.796,0 -43.443,-6.695 -43.618,-6.762 l -21.212,-8.186 12.357,19.071 c 18.619,28.714 40.962,49.571 66.407,61.992 21.429,10.461 40.488,12.656 52.703,12.656 7.045,0 11.676,-0.725 13.103,-0.983 7.11,-0.715 13.986,-1.077 20.441,-1.077 17.274,10e-4 32.063,2.529 44.136,7.532 -15.987,10.042 -31.697,12.371 -42.817,12.371 -9.702,0 -16.108,-1.779 -16.172,-1.797 l -21.754,-6.15 13.919,17.787 c 10.841,13.833 33.978,37.039 67.119,37.039 7.044,0 11.86,-1.121 13.345,-1.518 6.6,-1.26 12.779,-1.898 18.37,-1.898 6.878,0 12.936,0.955 18.04,2.84 29.732,39.524 60.358,57.586 83.093,65.808 -5.879,0.562 -12.295,0.925 -19.164,1.078 -2.433,0.054 -4.928,0.081 -7.418,0.081 -8.82,0 -14.945,-0.344 -15.006,-0.347 l -47.152,-2.688 44.087,16.934 c 27.289,10.48 54.49,17.297 80.849,20.261 10.036,1.685 20.299,2.54 30.509,2.54 2.501,0 5.04,-0.051 7.544,-0.153 l 7.856,-0.319 -4.718,-44.919 -0.018,-0.13 c -3.196,-22.639 -7.777,-43.195 -13.616,-61.097 l -0.062,-0.191 -0.074,-0.187 C -124.047,7.533 -207.435,-7.941 -216.853,-9.471 c -23.797,-3.6 -45.461,-26.997 -45.532,-49.1 -0.024,-6.901 1.935,-12.377 5.821,-16.276 3.981,-3.994 9.782,-6.105 16.778,-6.104 5.775,0 12.103,1.501 18.3,4.341 0.466,0.211 1.687,0.78 3.571,1.704 93.597,45.868 121.004,108.948 128.469,134.124 0.072,0.302 0.245,1.016 0.492,2.078 0.022,0.099 0.112,0.478 0.112,0.478 3.017,12.962 13.242,59.541 18.176,114.705 l 0.714,7.983 7.896,-1.376 0.149,-0.022 c 0.205,-0.029 0.41,-0.061 0.614,-0.097 33.754,-5.976 65.174,-21.196 90.857,-44.012 C 55.949,115.514 74.981,85.088 84.601,50.966 96.42,9.045 93.02,-35.885 75.025,-75.547 52.424,-125.366 9.319,-162.436 -43.235,-177.251 c -2.244,-0.633 -4.461,-1.171 -6.609,-1.69 -24.178,-7.747 -50.427,-11.676 -78.012,-11.676 z"
             style="fill:#e3032e;fill-opacity:1;fill-rule:nonzero;stroke:none"
             id="path38" /></g><g
           id="g40"
           transform="translate(492.3566,547.4906)"><path
             d="m 0,0 c 1.635,1.361 3.819,2.951 6.683,4.69 7.628,4.633 17.694,8.837 28.343,11.84 10.772,3.036 21.653,4.709 30.639,4.709 3.22,0 5.819,-0.211 7.865,-0.509 C 71.895,19.369 69.711,17.778 66.847,16.04 59.219,11.407 49.152,7.202 38.503,4.2 27.729,1.163 16.85,-0.51 7.865,-0.51 4.646,-0.51 2.045,-0.298 0,0 m -284.492,55.51 c 0.592,0.154 6.056,1.512 14.14,1.512 6.04,0 13.572,-0.757 21.764,-3.322 -7.028,-1.22 -14.732,-1.832 -23.083,-1.832 -6.129,0 -12.662,0.34 -19.43,1.011 -0.347,0.06 -0.778,0.131 -1.291,0.205 z m 110.37,-100.474 c -4.922,0 -9.026,1.398 -11.556,3.937 -2.451,2.46 -3.686,6.175 -3.67,11.043 0.029,8.865 4.402,18.587 12,26.674 7.68,8.176 17.588,13.698 27.183,15.149 l 0.08,0.013 0.079,0.012 c 6.278,1.02 28.718,5.319 53.876,17.804 15.459,7.673 29.041,17.035 40.37,27.826 10.058,9.58 18.353,20.3 24.781,32.008 -21.583,-72.075 -94.225,-114.329 -124.517,-129.173 -1.798,-0.881 -2.959,-1.424 -3.322,-1.588 l -0.038,-0.017 -0.039,-0.017 c -5.239,-2.402 -10.505,-3.671 -15.227,-3.671 m 146.436,266.705 c -10.55,0 -21.157,-0.878 -31.531,-2.609 -26.921,-3.047 -54.666,-10.005 -82.47,-20.684 l -88.292,-33.911 94.425,5.421 c 0.047,0.002 4.584,0.255 11.435,0.32 -20.993,-12.616 -40.383,-30.472 -57.863,-53.308 -3.879,-1.154 -8.417,-1.737 -13.541,-1.737 -5.062,0 -10.694,0.579 -16.748,1.722 -2.191,0.564 -7.515,1.694 -14.969,1.694 -15.565,0 -45.738,-5.179 -72.922,-39.864 l -20.274,-25.869 c -11.533,-1.509 -25.581,-5.004 -40.716,-12.392 -26.665,-13.017 -50.001,-34.753 -69.359,-64.606 l -25.262,-38.958 42.971,17.185 c 0.758,0.282 17.167,6.264 40.951,6.264 17.599,0 34.807,-3.209 51.144,-9.538 21.12,-8.181 40.789,-21.628 58.461,-39.967 l 0.39,-0.405 0.42,-0.374 c 1.894,-1.686 47.123,-41.297 112.898,-41.297 1.14,0 2.283,0.011 3.426,0.036 l -50.536,-10.362 53.912,-17.138 c 1.379,-0.439 34.305,-10.741 79.544,-10.741 28.254,0 55.169,4.019 80.004,11.944 2.133,0.516 4.335,1.054 6.617,1.697 54.652,15.408 99.475,53.954 122.975,105.756 9.179,20.231 14.752,41.659 16.566,63.688 1.879,22.82 -0.345,45.656 -6.608,67.873 -10.004,35.481 -29.796,67.121 -57.237,91.5 -26.702,23.722 -59.371,39.546 -94.475,45.761 -0.273,0.049 -0.555,0.093 -0.838,0.133 l -0.04,0.006 -8.947,1.546 0.043,0.417 -3.214,0.13 -3.574,0.618 -0.042,-0.471 -8.881,0.361 c -2.605,0.105 -5.243,0.159 -7.843,0.159 M 9.943,-23.096 c -8.439,0 -17.071,1.186 -24.177,4.679 2.421,-5.52 7.797,-17.668 9.611,-19.997 0.842,-1.08 1.905,-2.053 3.39,-2.711 4.672,-2.069 11.258,-3.136 19.046,-3.136 9.601,0 21.029,1.621 32.948,4.981 21.589,6.087 38.817,16.195 45.301,25.586 0.922,1.336 1.32,2.721 1.474,4.081 0.331,2.934 -1.43,16.102 -2.248,22.074 -13.172,-20.812 -50.578,-30.28 -50.578,-30.28 0,0 -16.958,-5.277 -34.767,-5.277 m -2.078,7.839 c 10.019,0 22.058,1.716 34.639,5.263 30.471,8.59 52.601,24.669 49.432,35.913 -1.861,6.602 -12.026,10.069 -26.272,10.068 -10.018,0 -22.059,-1.716 -34.64,-5.263 -30.468,-8.59 -52.6,-24.669 -49.43,-35.913 1.861,-6.602 12.026,-10.068 26.271,-10.068 m -35.551,222.25 c 2.421,0 4.837,-0.049 7.246,-0.147 l -3.884,-36.97 c -2.84,-20.122 -7.077,-40.688 -13.324,-59.841 -26.591,-68.592 -108.603,-82.62 -114.723,-83.614 -26.39,-3.992 -51.639,-29.578 -51.724,-56.355 -0.066,-19.209 12.949,-29.777 29.973,-29.777 6.688,0 13.997,1.631 21.372,5.011 0.515,0.232 1.794,0.831 3.744,1.785 24.414,11.965 108.094,56.61 132.345,138.826 0,0 0.21,0.854 0.566,2.382 0.03,0.145 0.073,0.278 0.099,0.423 2.748,11.812 13.321,59.618 18.339,115.719 0.244,-0.042 0.492,-0.071 0.736,-0.114 C 68.077,192.813 124.056,145.37 143.168,77.579 154.998,35.615 150.68,-7.065 133.975,-43.888 113.1,-89.9 72.865,-126.758 20.427,-141.542 c -2.198,-0.62 -4.401,-1.15 -6.603,-1.682 -26.713,-8.595 -53.023,-11.405 -76.016,-11.405 -43.471,0 -75.077,10.046 -75.077,10.046 13.666,2.803 25.1,7.511 34.582,13.008 28.938,16.775 39.652,40.929 39.652,40.929 -23.759,-14.782 -46.563,-22.125 -67.601,-24.691 -6.128,-0.747 -12.094,-1.088 -17.902,-1.088 -60.916,0 -103.089,37.563 -103.089,37.563 -42.338,43.935 -87.594,54.018 -120.224,54.018 -27.689,0 -46.286,-7.262 -46.286,-7.262 41.041,63.291 90.531,71.287 112.922,71.286 7.571,0 12.046,-0.914 12.046,-0.914 7.728,-0.787 14.877,-1.146 21.498,-1.146 27.665,0 46.037,6.273 58.161,13.814 -20.64,17.156 -42.164,20.836 -56.842,20.836 -11.036,0 -18.202,-2.082 -18.202,-2.082 22.911,29.234 47.333,34.214 61.315,34.214 7.224,0 11.661,-1.33 11.661,-1.33 7.595,-1.468 14.242,-2.087 20.054,-2.087 9.736,0 17.131,1.739 22.709,4.142 50.92,68.791 104.896,71.302 112.511,71.302 0.6,0 0.914,-0.016 0.914,-0.016 -13.441,6.758 -36.584,8.658 -54.002,9.044 -2.68,0.06 -5.224,0.084 -7.578,0.084 -9.171,0 -15.43,-0.36 -15.43,-0.36 28.288,10.865 54.686,17.099 79.229,19.84 9.872,1.67 19.728,2.472 29.485,2.472"
             style="fill:#070707;fill-opacity:1;fill-rule:nonzero;stroke:none"
             id="path42" /></g><g
           id="g44"
           transform="translate(534.8605,537.496)"><path
             d="m 0,0 c -30.469,-8.59 -57.74,-6.439 -60.91,4.806 -3.17,11.243 18.962,27.322 49.431,35.913 30.47,8.59 57.741,6.439 60.911,-4.805 C 52.602,24.669 30.471,8.591 0,0 M 55.032,0.382 C 54.878,-0.979 54.48,-2.363 53.558,-3.7 47.074,-13.09 29.846,-23.199 8.257,-29.285 c -21.588,-6.086 -41.562,-6.466 -51.994,-1.845 -1.485,0.658 -2.548,1.631 -3.39,2.711 -1.814,2.328 -7.19,14.477 -9.611,19.997 22.101,-10.866 58.944,0.597 58.944,0.597 0,0 37.406,9.469 50.578,30.281 0.819,-5.972 2.579,-19.141 2.248,-22.074 m -94.457,213.933 c -0.244,0.044 -0.492,0.072 -0.736,0.115 -5.018,-56.101 -15.591,-103.907 -18.339,-115.719 -0.026,-0.146 -0.069,-0.279 -0.099,-0.423 -0.356,-1.528 -0.566,-2.383 -0.566,-2.383 C -83.416,13.689 -167.096,-30.956 -191.51,-42.92 c -1.949,-0.955 -3.229,-1.553 -3.744,-1.786 -26.149,-11.982 -51.436,-1.989 -51.345,24.767 0.085,26.776 25.334,52.362 51.724,56.355 6.12,0.994 88.132,15.021 114.723,83.614 6.247,19.153 10.484,39.719 13.324,59.841 l 3.884,36.969 c -12.113,0.492 -24.409,-0.24 -36.73,-2.324 -24.544,-2.742 -50.942,-8.975 -79.229,-19.84 0,0 9.88,0.567 23.007,0.276 17.419,-0.387 40.561,-2.286 54.002,-9.045 0,0 -58.491,2.927 -113.425,-71.285 -8.908,-3.839 -22.449,-5.98 -42.763,-2.056 0,0 -38.225,11.457 -72.976,-32.884 0,0 38.885,11.302 75.044,-18.753 -15.026,-9.346 -39.639,-16.743 -79.659,-12.669 0,0 -70.05,14.32 -124.968,-70.371 0,0 88.245,34.461 166.51,-46.757 0,0 50.585,-45.061 120.991,-36.475 21.038,2.566 43.842,9.909 67.601,24.692 0,0 -10.713,-24.154 -39.651,-40.929 -9.483,-5.497 -20.917,-10.205 -34.582,-13.008 0,0 73.876,-23.486 151.092,1.359 2.202,0.532 4.405,1.062 6.603,1.682 52.438,14.783 92.673,51.641 113.548,97.654 16.705,36.822 21.023,79.502 9.193,121.466 -19.112,67.791 -75.091,115.235 -140.089,126.742"
             style="fill:#e3032e;fill-opacity:1;fill-rule:nonzero;stroke:none"
             id="path46" /></g><g
           id="g48"
           transform="translate(455.3741,276.5155)"><path
             d="m 0,0 -2.284,-29.827 c -0.154,-1.74 -0.565,-3.45 -1.515,-4.824 -1.052,-1.527 -2.642,-2.289 -4.233,-2.657 l -18.117,-4.181 3.515,45.916 14.909,3.449 C -5.954,8.273 -4.081,8.242 -2.489,7.113 -0.309,5.617 0.205,2.747 0,0"
             style="fill:#070707;fill-opacity:1;fill-rule:nonzero;stroke:none"
             id="path50" /></g></g></g><g
       id="g52"><g
         id="g54"
         clip-path="url(#clipPath58)"><g
           id="g60"
           transform="translate(799.1105,478.2474)"><path
             d="m 0,0 -58.706,-145.025 -14.974,-99.227 -69.64,-13.303 7.266,48.152 c -114.178,-21.81 -254.968,-48.434 -362.359,-68.949 l -7.31,-48.42 -190.559,-37.036 35.781,237.002 C -462.454,-88.975 -193.155,-36.898 0,0"
             style="fill:#070707;fill-opacity:1;fill-rule:evenodd;stroke:none"
             id="path62" /></g><g
           id="g64"
           transform="translate(275.5016,361.0262)"><path
             d="m 0,0 -9.888,-65.492 -17.87,-3.413 9.888,65.492 -33.477,-6.395 -30.434,-201.583 33.477,6.395 16.559,109.683 17.87,3.413 -16.559,-109.683 33.477,6.396 30.434,201.583 z"
             style="fill:#ffffff;fill-opacity:1;fill-rule:nonzero;stroke:none"
             id="path66" /></g><g
           id="g68"
           transform="translate(369.8522,350.121)"><path
             d="m 0,0 -14.098,-93.381 c -0.17,-1.127 -0.481,-1.973 -0.932,-2.537 -0.452,-0.564 -1.356,-0.978 -2.713,-1.236 l -12.441,-2.377 c -1.357,-0.259 -2.188,-0.178 -2.49,0.243 -0.303,0.421 -0.368,1.194 -0.199,2.321 l 14.099,93.38 c 0.298,1.972 1.426,3.146 3.387,3.52 L -2.494,2.396 C -0.534,2.77 0.297,1.971 0,0 m 31.62,29.737 c -3.002,2.914 -8.348,3.638 -16.038,2.168 L -25.134,24.128 C -32.825,22.659 -38.713,19.79 -42.799,15.521 -46.885,11.253 -49.386,6.091 -50.3,0.034 l -16.841,-111.549 c -0.446,-2.958 -0.49,-5.667 -0.13,-8.129 0.361,-2.461 1.298,-4.505 2.81,-6.131 1.512,-1.626 3.685,-2.75 6.52,-3.371 2.836,-0.622 6.515,-0.5 11.039,0.365 l 38.002,7.259 c 4.523,0.864 8.383,2.182 11.58,3.956 3.197,1.773 5.849,3.819 7.956,6.136 2.108,2.318 3.735,4.851 4.883,7.601 1.147,2.75 1.943,5.603 2.39,8.56 L 34.75,16.281 c 0.915,6.056 -0.129,10.542 -3.13,13.456"
             style="fill:#ffffff;fill-opacity:1;fill-rule:nonzero;stroke:none"
             id="path70" /></g><g
           id="g72"
           transform="translate(663.8751,407.5175)"><path
             d="m 0,0 -1.349,27.44 -63.788,-12.185 -23.125,-153.168 62.431,11.926 9.961,29.6 -34.383,-6.567 5.04,33.38 27.144,5.185 3.987,26.409 -27.144,-5.186 5.487,36.338 z"
             style="fill:#ffffff;fill-opacity:1;fill-rule:nonzero;stroke:none"
             id="path74" /></g><g
           id="g76"
           transform="translate(436.504,273.6014)"><path
             d="m 0,0 13.62,90.212 c 0.297,1.972 1.426,3.144 3.387,3.519 l 31.441,6.006 -1.349,27.441 -43.203,-8.253 c -5.429,-1.037 -10.235,-3.529 -14.419,-7.474 -4.184,-3.944 -6.733,-8.946 -7.647,-15.002 L -34.884,-14.255 c -1.276,-8.451 -0.305,-14.146 2.912,-17.089 3.217,-2.941 9.576,-3.505 19.076,-1.69 l 36.644,7 L 33.936,3.61 2.494,-2.396 C 0.533,-2.771 -0.298,-1.971 0,0"
             style="fill:#ffffff;fill-opacity:1;fill-rule:nonzero;stroke:none"
             id="path78" /></g><g
           id="g80"
           transform="translate(738.5284,449.4764)"><path
             d="m 0,0 -25.837,-75.105 -3.795,69.444 -33.93,-6.481 14.186,-108.29 -13.174,-87.297 34.609,6.611 13.173,87.298 48.699,120.301 z"
             style="fill:#ffffff;fill-opacity:1;fill-rule:nonzero;stroke:none"
             id="path82" /></g><g
           id="g84"
           transform="translate(589.6906,421.0448)"><path
             d="m 0,0 -33.931,-6.481 -26.658,-68.903 -4.976,-0.95 9.919,65.704 -33.476,-6.395 -23.125,-153.168 33.477,6.394 9.537,63.169 6.559,1.253 3.357,-60.706 35.965,6.87 -6.981,78.89 z"
             style="fill:#ffffff;fill-opacity:1;fill-rule:nonzero;stroke:none"
             id="path86" /></g><g
           id="g88"
           transform="translate(250.1945,164.7909)"><path
             d="M 0,0 24.582,4.695 38.188,94.826 13.607,90.131 Z"
             style="fill:#a9abb7;fill-opacity:1;fill-rule:nonzero;stroke:none"
             id="path90" /></g><g
           id="g92"
           transform="translate(264.7218,261.0155)"><path
             d="M 0,0 24.581,4.695 26.579,17.928 1.998,13.231 Z"
             style="fill:#a9abb7;fill-opacity:1;fill-rule:nonzero;stroke:none"
             id="path94" /></g><g
           id="g96"
           transform="translate(363.5699,279.8973)"><path
             d="M 0,0 24.355,4.652 26.353,17.885 1.998,13.232 Z"
             style="fill:#a9abb7;fill-opacity:1;fill-rule:nonzero;stroke:none"
             id="path98" /></g><g
           id="g100"
           transform="translate(360.0646,256.6815)"><path
             d="m 0,0 c -0.262,-1.738 -0.832,-3.478 -2.001,-4.941 -1.477,-1.848 -3.611,-2.694 -5.734,-3.1 l -12.441,-2.376 c -2.429,-0.464 -4.93,-0.323 -6.363,1.671 -1.06,1.475 -1.144,3.379 -0.857,5.277 l 2.311,15.306 -24.129,-4.609 -3.829,-25.363 c -0.347,-2.3 -0.447,-4.628 -0.122,-6.843 0.234,-1.601 0.81,-2.984 1.86,-4.114 1.17,-1.258 2.922,-1.929 4.628,-2.304 2.811,-0.615 6.392,-0.184 9.342,0.379 l 38.002,7.26 c 3.387,0.647 6.981,1.678 10.132,3.426 2.405,1.334 4.719,2.988 6.606,5.064 1.661,1.827 2.981,3.85 3.914,6.084 1.008,2.417 1.688,4.902 2.067,7.413 L 26.941,21.774 2.585,17.122 Z"
             style="fill:#a9abb7;fill-opacity:1;fill-rule:nonzero;stroke:none"
             id="path102" /></g><g
           id="g104"
           transform="translate(213.3751,251.2059)"><path
             d="M 0,0 24.581,4.696 26.579,17.928 1.997,13.232 Z"
             style="fill:#a9abb7;fill-opacity:1;fill-rule:nonzero;stroke:none"
             id="path106" /></g><g
           id="g108"
           transform="translate(614.7638,340.7313)"><path
             d="m 0,0 -24.808,-4.738 -1.997,-13.232 24.807,4.739 z"
             style="fill:#a9abb7;fill-opacity:1;fill-rule:nonzero;stroke:none"
             id="path110" /></g><g
           id="g112"
           transform="translate(198.8478,154.9823)"><path
             d="M 0,0 24.581,4.695 38.188,94.826 13.607,90.131 Z"
             style="fill:#a9abb7;fill-opacity:1;fill-rule:nonzero;stroke:none"
             id="path114" /></g><g
           id="g116"
           transform="translate(337.8976,287.8436)"><path
             d="m 0,0 -24.129,-4.609 -1.998,-13.232 24.129,4.61 z"
             style="fill:#a9abb7;fill-opacity:1;fill-rule:nonzero;stroke:none"
             id="path118" /></g><g
           id="g120"
           transform="translate(437.1984,306.8134)"><path
             d="m 0,0 -24.808,-4.739 -1.997,-13.233 24.807,4.74 z"
             style="fill:#a9abb7;fill-opacity:1;fill-rule:nonzero;stroke:none"
             id="path122" /></g><g
           id="g124"
           transform="translate(693.5577,329.6083)"><path
             d="M 0,0 -12.452,-82.515 13.26,-77.604 25.977,6.665 28.479,12.847 -0.947,7.226 Z"
             style="fill:#a9abb7;fill-opacity:1;fill-rule:nonzero;stroke:none"
             id="path126" /></g><g
           id="g128"
           transform="translate(611.8458,321.4061)"><path
             d="m 0,0 -24.807,-4.738 -6.298,-41.718 54.164,10.348 6.82,20.266 -33.23,-6.348 z"
             style="fill:#a9abb7;fill-opacity:1;fill-rule:nonzero;stroke:none"
             id="path130" /></g><g
           id="g132"
           transform="translate(711.9171,359.2909)"><path
             d="m 0,0 -2.419,-7.032 -0.355,6.502 -18.931,-3.616 1.643,-12.538 32.778,6.262 5.638,13.928 z"
             style="fill:#a9abb7;fill-opacity:1;fill-rule:nonzero;stroke:none"
             id="path134" /></g><g
           id="g136"
           transform="translate(532.2745,306.2059)"><path
             d="M 0,0 2.216,-40.09 29.325,-34.911 25.8,4.929 Z"
             style="fill:#a9abb7;fill-opacity:1;fill-rule:nonzero;stroke:none"
             id="path138" /></g><g
           id="g140"
           transform="translate(556.4406,329.5907)"><path
             d="m 0,0 -25.193,-4.812 0.703,-12.716 25.609,4.892 z"
             style="fill:#a9abb7;fill-opacity:1;fill-rule:nonzero;stroke:none"
             id="path142" /></g><g
           id="g144"
           transform="translate(482.5704,256.1981)"><path
             d="M 0,0 24.581,4.695 30.879,46.412 6.298,41.717 Z"
             style="fill:#a9abb7;fill-opacity:1;fill-rule:nonzero;stroke:none"
             id="path146" /></g><g
           id="g148"
           transform="translate(432.1935,273.661)"><path
             d="M 0,0 2.088,13.826 -22.72,9.087 -26.263,-14.374 c -0.593,-3.931 -1.206,-10.864 1.767,-13.584 3.105,-2.838 11.622,-1.588 15.691,-0.811 l 33.746,6.448 6.975,20.296 L 7.025,-6.78 C 2.313,-7.681 -0.721,-4.771 0,0"
             style="fill:#a9abb7;fill-opacity:1;fill-rule:nonzero;stroke:none"
             id="path150" /></g><g
           id="g152"
           transform="translate(489.7882,304.0087)"><path
             d="M 0,0 24.581,4.695 26.579,17.927 1.998,13.231 Z"
             style="fill:#a9abb7;fill-opacity:1;fill-rule:nonzero;stroke:none"
             id="path154" /></g><g
           id="g156"
           transform="translate(178.3365,278.4091)"><path
             d="m 0,0 9.888,65.493 -33.477,-6.395 -30.434,-201.583 33.477,6.395 16.559,109.682 z"
             style="fill:#ffffff;fill-opacity:1;fill-rule:nonzero;stroke:none"
             id="path158" /></g><g
           id="g160"
           transform="translate(144.0275,237.6044)"><path
             d="M 0,0 24.581,4.695 26.579,17.928 1.998,13.231 Z"
             style="fill:#a9abb7;fill-opacity:1;fill-rule:nonzero;stroke:none"
             id="path162" /></g><g
           id="g164"
           transform="translate(129.5001,141.3798)"><path
             d="M 0,0 24.581,4.695 38.188,94.826 13.607,90.131 Z"
             style="fill:#a9abb7;fill-opacity:1;fill-rule:nonzero;stroke:none"
             id="path166" /></g></g></g><g
       id="g168"
       transform="translate(317.2325,176.3544)"><path
         d="m 0,0 5.243,26.025 2.881,2.996 10.043,1.944 1.818,-2.086 -1.276,-6.421 -4.813,-0.932 0.747,3.409 -0.409,0.51 -3.979,-0.77 -0.69,-0.723 -4.138,-19.873 0.41,-0.511 3.978,0.771 0.691,0.723 1.299,6.229 -2.312,-0.448 0.989,5.107 7.163,1.387 L 14.742,2.854 11.861,-0.142 1.819,-2.086 Z"
         style="fill:#e3032e;fill-opacity:1;fill-rule:nonzero;stroke:none"
         id="path170" /></g><g
       id="g172"
       transform="translate(341.3883,178.5927)"><path
         d="M 0,0 6.381,31.121 11.194,32.053 4.813,0.932 Z"
         style="fill:#e3032e;fill-opacity:1;fill-rule:nonzero;stroke:none"
         id="path174" /></g><g
       id="g176"
       transform="translate(365.8663,183.3309)"><path
         d="m 0,0 -6.14,-1.188 1,30.08 4.737,0.917 -1.16,-22.444 8.437,23.852 4.888,0.946 z"
         style="fill:#e3032e;fill-opacity:1;fill-rule:nonzero;stroke:none"
         id="path178" /></g><g
       id="g180"
       transform="translate(379.3766,185.9462)"><path
         d="m 0,0 6.381,31.121 13.795,2.671 -1.02,-5.035 -8.983,-1.738 -1.601,-7.743 6.67,1.291 -1.02,-5.034 L 7.552,14.242 5.834,5.966 14.816,7.705 13.795,2.67 Z"
         style="fill:#e3032e;fill-opacity:1;fill-rule:nonzero;stroke:none"
         id="path182" /></g><g
       id="g184"
       transform="translate(426.2262,206.3007)"><path
         d="M 0,0 0.139,10.094 -4.017,-0.777 Z m -0.111,-4.858 -5.912,-1.145 -2.663,-6.965 -5.002,-0.968 13.202,32.443 4.7,0.909 0.44,-29.801 -4.851,-0.939 z"
         style="fill:#e3032e;fill-opacity:1;fill-rule:nonzero;stroke:none"
         id="path186" /></g><g
       id="g188"
       transform="translate(452.2902,200.0604)"><path
         d="M 0,0 -13.227,-2.561 -6.845,28.561 -1.994,29.5 -7.354,3.413 1.021,5.034 Z"
         style="fill:#e3032e;fill-opacity:1;fill-rule:nonzero;stroke:none"
         id="path190" /></g><g
       id="g192"
       transform="translate(473.3566,204.1385)"><path
         d="m 0,0 -13.226,-2.561 6.38,31.122 4.852,0.939 -5.36,-26.087 8.375,1.621 z"
         style="fill:#e3032e;fill-opacity:1;fill-rule:nonzero;stroke:none"
         id="path194" /></g><g
       id="g196"
       transform="translate(503.5626,209.9852)"><path
         d="M 0,0 -4.776,-0.925 -2.524,9.933 -4.95,28.928 0.203,29.926 1.235,17.581 7.707,31.378 13.013,32.405 2.251,10.856 Z"
         style="fill:#e3032e;fill-opacity:1;fill-rule:nonzero;stroke:none"
         id="path198" /></g><g
       id="g200"
       transform="translate(532.0031,240.5009)"><path
         d="m 0,0 -3.638,-0.704 -0.649,-0.677 -4.138,-19.873 0.412,-0.471 3.639,0.704 0.687,0.685 4.137,19.873 z m 5.875,3.575 -5.244,-26.025 -2.88,-2.995 -9.702,-1.878 -1.819,2.086 5.244,26.024 2.88,2.996 9.702,1.878 z"
         style="fill:#e3032e;fill-opacity:1;fill-rule:nonzero;stroke:none"
         id="path202" /></g><g
       id="g204"
       transform="translate(557.0519,222.7772)"><path
         d="m 0,0 -2.881,-2.995 -9.701,-1.879 -1.819,2.087 5.812,28.573 4.814,0.932 -5.28,-25.521 0.412,-0.471 3.713,0.718 0.65,0.677 5.28,25.521 4.812,0.931 z"
         style="fill:#e3032e;fill-opacity:1;fill-rule:nonzero;stroke:none"
         id="path206" /></g><g
       id="g208"
       transform="translate(578.2003,226.871)"><path
         d="m 0,0 5.244,26.025 2.88,2.996 10.043,1.944 1.819,-2.086 -1.276,-6.421 -4.814,-0.932 0.747,3.409 -0.41,0.51 -3.978,-0.77 L 9.564,23.952 5.427,4.079 5.836,3.568 l 3.979,0.771 0.691,0.723 1.299,6.229 -2.313,-0.448 0.989,5.107 7.164,1.387 L 14.742,2.854 11.861,-0.142 1.818,-2.086 Z"
         style="fill:#e3032e;fill-opacity:1;fill-rule:nonzero;stroke:none"
         id="path210" /></g><g
       id="g212"
       transform="translate(616.6193,256.8807)"><path
         d="m 0,0 -3.639,-0.705 -0.649,-0.676 -4.136,-19.873 0.411,-0.471 3.638,0.704 0.687,0.684 4.138,19.873 z m 5.874,3.574 -5.242,-26.024 -2.881,-2.996 -9.702,-1.878 -1.82,2.086 5.245,26.025 2.88,2.995 9.702,1.879 z"
         style="fill:#e3032e;fill-opacity:1;fill-rule:nonzero;stroke:none"
         id="path214" /></g><g
       id="g216"
       transform="translate(645.0577,262.4247)"><path
         d="m 0,0 -5.192,-1.005 -5.361,-26.088 -4.813,-0.931 5.361,26.087 -5.192,-1.005 1.02,5.035 15.198,2.941 z"
         style="fill:#e3032e;fill-opacity:1;fill-rule:nonzero;stroke:none"
         id="path218" /></g></g></svg>
